<?xml version="1.0" encoding="UTF-8" standalone="no"?>
<svg width="28px" height="32px" viewBox="0 0 28 32" version="1.1" xmlns="http://www.w3.org/2000/svg" xmlns:xlink="http://www.w3.org/1999/xlink" xmlns:sketch="http://www.bohemiancoding.com/sketch/ns">
    <!-- Generator: Sketch 3.4.4 (17249) - http://www.bohemiancoding.com/sketch -->
    <title>beardrop</title>
    <desc>Created with Sketch.</desc>
    <defs></defs>
    <g id="Page-1" stroke="none" stroke-width="1" fill="none" fill-rule="evenodd" sketch:type="MSPage">
        <g id="beardrop" sketch:type="MSLayerGroup">
            <g id="Group" sketch:type="MSShapeGroup">
                <g id="Clipped" fill="#FFFFFF">
                    <path d="M12.9352231,0.0839895013 C12.831916,1.06582677 12.7269291,2.04346457 12.0869291,2.76577428 C10.8262467,4.18855643 9.11370079,5.06288714 7.71779528,5.74992126 C4.16755906,7.49774278 0.0839895013,11.5695538 0.0839895013,18.0737008 C0.0839895013,21.2250709 1.29931759,24.6148031 3.59223097,27.2268766 C6.03296588,30.0069291 9.6839895,31.9101312 14.0195276,31.8891339 C17.895643,31.8706562 21.0771654,30.6049344 23.4701102,28.5387927 C26.2678005,26.1223307 27.9550656,22.5730184 27.9550656,18.0736168 C27.9550656,14.7593911 26.9673491,11.88779 25.168294,9.68978478 C21.6197375,5.35592651 18.7565354,4.97377428 16.9464777,3.94070341 C15.6506037,3.20167979 14.4545932,1.89984252 12.9352231,0.0839895013 L12.9352231,0.0839895013 Z" id="Shape"></path>
                </g>
                <g id="Clipped" fill="#19A8E2">
                    <path d="M8.61105433,12.4168728 C8.3314437,12.1933778 7.97733473,12.0608288 7.5912979,12.0608288 C6.68764277,12.0608288 5.95426955,12.794202 5.95426955,13.6978572 C5.95426955,14.1158219 6.11197381,14.4970211 6.3693317,14.7863069 C6.92758546,13.8691066 7.69288654,13.0631701 8.61105433,12.4168728 L8.61105433,12.4168728 Z M21.7904871,14.7911444 C22.0506508,14.5008912 22.2094193,14.1177569 22.2094193,13.6978572 C22.2094193,12.794202 21.4760461,12.0608288 20.5723909,12.0608288 C20.1853866,12.0608288 19.8292458,12.1953128 19.5487645,12.4197753 C20.4669322,13.0670401 21.2332008,13.8729766 21.7904871,14.7911444 L21.7904871,14.7911444 Z M14.8582719,22.6057295 C14.4103143,22.3261189 14.1307037,21.9275044 14.1307037,21.485352 C14.1307037,21.9874901 13.7678871,22.4335126 13.2086659,22.7131232 C12.9271202,22.9753187 12.508188,23.1426013 12.0399128,23.1426013 C11.8647933,23.1426013 11.6954789,23.1194778 11.5387422,23.0768106 C11.4390885,23.0497203 11.343305,23.0148899 11.2533265,22.9723194 C10.5044731,22.8436404 9.90364882,22.4711488 9.65306351,21.9883609 C9.68982892,22.8881459 10.5170507,23.6273242 11.6006628,23.7869635 C11.8609233,24.9160487 12.8729396,25.7577831 14.0813607,25.7577831 C15.2897817,25.7577831 16.3017981,24.9171129 16.563026,23.7888985 C17.5798799,23.6408694 18.3732388,22.982962 18.5009502,22.1605778 C18.1874767,22.5861858 17.58762,22.8997561 16.8697269,22.9926371 C16.7913585,23.0265968 16.7100876,23.0555253 16.6239792,23.0777781 C16.4691774,23.1194778 16.3037331,23.1426013 16.1315161,23.1426013 C15.6013202,23.1426981 15.1340125,22.9299424 14.8582719,22.6057295 L14.8582719,22.6057295 Z M12.9474379,20.1443819 C13.6537209,20.4065774 14.1307037,20.9086188 14.1307037,21.4852552 C14.1307037,20.8921711 14.6347769,20.3785196 15.3739551,20.1229999 L16.8523117,18.3061113 L11.4506987,18.3061113 L12.9474379,20.1443819 L12.9474379,20.1443819 Z M17.7192014,14.9711014 C17.1377274,14.9711014 16.6471994,15.3610083 16.4953002,15.8941068 C17.2905941,16.1921001 18.0008438,16.6313501 18.5831886,17.1780904 C18.835709,16.9458878 18.9924457,16.6130641 18.9924457,16.243475 C18.9924457,15.5409653 18.4225818,14.9711014 17.7192014,14.9711014 L17.7192014,14.9711014 Z M10.4444874,14.9711014 C9.74207451,14.9711014 9.17124311,15.5409653 9.17124311,16.2433782 C9.17124311,16.6119998 9.32797987,16.9438561 9.57759767,17.1770262 C10.1619742,16.6303825 10.8730947,16.1901651 11.6693561,15.8921718 C11.5164894,15.3600408 11.0259614,14.9711014 10.4444874,14.9711014 L10.4444874,14.9711014 Z M12.9362643,0.0839895013 C12.8329489,1.06590632 12.7279535,2.04362332 12.0879016,2.76599156 C10.8271171,4.18888899 9.11443238,5.06329053 7.71841377,5.75038032 C4.16788991,7.49834345 0.0839895013,11.5704844 0.0839895013,18.0751583 C0.0839895013,21.2267837 1.29941605,24.6167907 3.59251521,27.2290758 C6.03344787,30.0093535 9.6847673,31.9127098 14.0206566,31.8917107 C17.8970862,31.8732315 21.0788662,30.6074072 23.472005,28.5410981 C26.269922,26.1244404 27.9573238,22.5748404 27.9573238,18.0750743 C27.9573238,14.7605801 26.9695272,11.8887464 25.1703263,9.69056304 C21.6214824,5.35635365 18.7580483,4.97417045 16.9478439,3.94101589 C15.6518649,3.20193239 14.4557575,1.89998964 12.9362643,0.0839895013 L12.9362643,0.0839895013 Z M14.0784581,10.7343714 C15.5219843,10.7343714 16.8842396,11.0410724 18.0829855,11.583846 C18.6838098,10.8427327 19.6000425,10.3686523 20.6285066,10.3686523 C22.4367843,10.3686523 23.90266,11.8344313 23.90266,13.6417415 C23.90266,14.756314 23.3443095,15.7402726 22.4938675,16.3314217 C22.6989798,16.9806215 22.809276,17.6656191 22.809276,18.3719021 C22.809276,20.9445134 21.3560747,23.2191314 19.1288647,24.6036394 C18.0085839,26.5551088 16.1644115,27.8293206 14.0803931,27.8293206 C11.9963748,27.8293206 10.1532666,26.5570438 9.03288906,24.606542 C6.80374407,23.2229047 5.34860776,20.9464484 5.34860776,18.3719021 C5.34860776,17.6646516 5.45890399,16.979654 5.6649838,16.3294867 C4.81647679,15.7384343 4.26015805,14.754379 4.26015805,13.6417415 C4.26015805,11.8344313 5.72593699,10.3686523 7.53421476,10.3686523 C8.56171128,10.3686523 9.47794405,10.8417651 10.0778008,11.5819109 C11.2765467,11.0401049 12.636867,10.7343714 14.0784581,10.7343714 L14.0784581,10.7343714 Z" id="Shape"></path>
                </g>
            </g>
        </g>
    </g>
</svg>